# xmcd
#
# Track frame offsets:
#	150
#	12320
#	22670
#	32132
#	44955
#	55610
#	73405
#	92185
#	106292
#	120807
#	135972
#	153270
#	169347
#	181937
#	203650
#	221212
#	240980
#
# Disc length: 3573
#
# Revision: 1
# Processed by: cddbd v1.5.1PL0 Copyright (c) Steve Scherf et al.
# Submitted via: CD-DA_X-Tractor v0.24
# Normalized: r0:DSETVAR1,TSWAP
#
DISCID=e00df311
DTITLE=Various Artist - Lovesongs CD2
DYEAR=1900
DGENRE=Pop
TTITLE0=the troggs - love is all araound
TTITLE1=pat boone - love letters in the sand
TTITLE2=sam cooke - what a wonderful world
TTITLE3=percy sledge - when a man loves a woman
TTITLE4=frankie avalon - venus
TTITLE5=marmalade - reflections of my life
TTITLE6=chris norman - midnight lady
TTITLE7=the tremeloes - silence is golden
TTITLE8=p.p.arnold - angel of the morning
TTITLE9=the real thing - you to me are everything
TTITLE10=precious wilson - killing ne softly
TTITLE11=rod stewart - little miss understood
TTITLE12=james brown - it's a man's man's world
TTITLE13=sally oldfield - woman of the night
TTITLE14=bonnie tyler - lost in france
TTITLE15=lisa stansfield - all around the world
TTITLE16=10CC - i'm not in love
EXTD=
EXTT0=
EXTT1=
EXTT2=
EXTT3=
EXTT4=
EXTT5=
EXTT6=
EXTT7=
EXTT8=
EXTT9=
EXTT10=
EXTT11=
EXTT12=
EXTT13=
EXTT14=
EXTT15=
EXTT16=
PLAYORDER=
